<svg version="1.1" id="Layer_1" xmlns="http://www.w3.org/2000/svg" xmlns:xlink="http://www.w3.org/1999/xlink" x="0px" y="0px" viewBox="0 0 200.6429 230.4449" enable-background="new 0 0 200.6429 230.4449" xml:space="preserve">
<g>
	<path d="M147.0085,145.8613c-1.7137,2.5742-4.2076,4.35-6.9624,5.0536c0.2808,7.1647,0.4587,31.5391-9.3595,41.9796
		c-0.3604,0.3832-0.7322,0.7388-1.1104,1.0786l-0.3426,29.1421c-0.0068,0.5886-0.0805,1.1591-0.2053,1.7092h6.4924v-0.0001h6.4924
		c-0.1248-0.55-0.1984-1.1205-0.2053-1.7091l-0.5274-44.8599l2.4995-0.0745l0.528,44.9051
		c0.0347,2.9775,2.4331,5.3867,5.4102,5.4351c0.0303,0.0005,0.061,0.0005,0.0908,0.0005c2.937,0,5.3628-2.3125,5.4932-5.2568
		l2.0116-45.4871l0.0258-0.0008c0.1617-5.2869,0.47-9.8973,0.47-9.8973c0.9908,0.4954-0.1101-11.6423-0.1101-11.6423
		s-0.1651-0.7431,2.1468-1.4862c-2.6475-3.3094-6.0298-12.9263-7.9852-18.9504l-3.6298,7.1234
		C147.9894,144.0082,147.571,145.0161,147.0085,145.8613z" id="id_103" style="fill: rgb(255, 201, 5);"></path>
	<path d="M113.2419,223.3749l-1.2273-27.7517c-1.1265-0.7521-2.2258-1.6907-3.2994-2.8184
		c-1.731,3.4062-2.8017,8.1091-2.8017,13.3039c0,5.7563,1.318,10.9014,3.3891,14.3546l-1.5099,0.3601
		c-2.1489,0.5122-3.4751,2.6699-2.9624,4.8188c0.438,1.8369,2.0781,3.0728,3.8872,3.0728c0.3071,0,0.6196-0.0356,0.9316-0.1104
		l4.9141-1.1721C113.79,226.2625,113.3085,224.8783,113.2419,223.3749z" id="id_104" style="fill: rgb(252, 198, 5);"></path>
	<path d="M115.7395,223.2646c0.1304,2.9443,2.5562,5.2568,5.4932,5.2568c0.0298,0,0.0605,0,0.0908-0.0005
		c2.9771-0.0483,5.3755-2.4575,5.4102-5.4351l0.3204-27.2499c-2.327,1.3879-4.9177,2.0975-7.7512,2.0975
		c-1.6264,0-3.1996-0.3121-4.7249-0.9337L115.7395,223.2646z" id="id_105" style="fill: rgb(250, 197, 5);"></path>
	<path d="M157.7996,223.3749c-0.0666,1.5034-0.548,2.8875-1.3213,4.0576l4.914,1.1721c0.312,0.0747,0.624,0.1104,0.9316,0.1104
		c1.8091,0,3.4492-1.2363,3.8872-3.0728c0.1108-0.4643,0.1205-0.9261,0.0698-1.3745c1.3099,0.1994,2.4507,0.3608,3.3472,0.4772
		c6.7977,0.8832,31.0147-4.1614,31.0147-4.1614s-14.5388-5.8812-28.5738-9.3032c-2.2027-0.537-4.5989-1.1354-7.1094-1.7155
		c0.1061-1.1218,0.1683-2.274,0.1683-3.4562c0-7.759-2.3894-14.4174-5.7998-17.2989L157.7996,223.3749z" id="id_106" style="fill: rgb(252, 197, 0);"></path>
	<path d="M110.1058,111.1607c-0.8996,1.4194-1.8434,3.0035-2.584,4.4711c-0.8042,1.5937,0.0593,6.5222,0.0515,7.4811
		c-0.0253,3.0822,3.8938,2.4564,7.5194,1.5823c0.6468-0.1559,1.1949-0.5822,1.5048-1.171l5.493-10.4346l1.7795,1.5572l-5.2374,9.949
		c-0.0849,0.1613-0.1992,0.3002-0.3014,0.4488c0.6519,2.9297,1.3116,5.0557,1.3116,5.0557l6.0295,11.8314
		c0.1433,0.8442,0.4344,1.6303,0.8584,2.2672c1.6904,2.5393,4.3067,4.0574,7.1077,4.0574h1.8824h1.8824
		c2.801,0,5.4172-1.5181,7.1077-4.0574c0.424-0.6369,0.7151-1.423,0.8584-2.2672l6.0295-11.8314c0,0,0.6597-2.126,1.3116-5.0558
		c-0.1022-0.1486-0.2164-0.2875-0.3013-0.4487l-5.2374-9.949l1.7795-1.5572l5.493,10.4346c0.3099,0.5887,0.858,1.0151,1.5048,1.171
		c3.6257,0.874,7.5447,1.4998,7.5195-1.5823c-0.0079-0.9589,0.8556-5.8875,0.0514-7.4811c-0.7406-1.4677-1.6844-3.0518-2.584-4.4711
		c-1.5865-2.5032-3.7161-2.7982-6.5366-2.8386c-0.2877-0.0042-0.5802-0.0065-0.8826-0.0074l-0.5729-0.1171l-2.4506-0.5009
		c-5.1418-3.1456-14.9724-3.478-14.9724-3.478v0.0001c0,0-9.8305,0.3323-14.9724,3.4779l-2.4508,0.5009l-0.5726,0.1171
		c-0.3024,0.0009-0.5948,0.0032-0.8826,0.0074C113.8219,108.3625,111.6923,108.6575,110.1058,111.1607z M132.0238,142.8543
		c0-2.0192,1.6369-3.6561,3.6561-3.6561s3.6561,1.6369,3.6561,3.6561S132.0238,144.8735,132.0238,142.8543z M142.4629,122.6049
		c1.3008,0,2.3554,1.0546,2.3554,2.3554s-1.0546,2.3554-2.3554,2.3554s-2.3553-1.0546-2.3553-2.3554
		S141.162,122.6049,142.4629,122.6049z M128.5786,122.605c1.3008,0,2.3554,1.0545,2.3554,2.3554
		c0,1.3008-1.0546,2.3553-2.3554,2.3553s-2.3554-1.0545-2.3554-2.3553C126.2232,123.6595,127.2778,122.605,128.5786,122.605z" id="id_107" style="fill: rgb(252, 198, 3);"></path>
	<path d="M34.486,41.9249c-3.619-2.1699-6.6162-5.2728-8.6568-8.9752c-2.622,3.6379-4.2755,8.993-3.9249,16.9545
		c3.1523-1.2622,7.3021-2.5619,12.3685-3.4373C34.3177,44.8889,34.3718,43.3595,34.486,41.9249z" id="id_108" style="fill: rgb(252, 197, 0);"></path>
	<circle cx="46.6863" cy="21.5" r="21.5" id="id_109" style="fill: rgb(247, 193, 0);"></circle>
	<path d="M76.023,54.8551c-3.5547-2.0674-13.5947-6.9365-29.335-6.9365c-15.7275,0-25.7656,4.8618-29.3271,6.9316
		c-1.5605,0.6172-2.8838,1.833-3.5928,3.499c-0.5146,1.21-12.6201,30.1143-13.7656,71.8662
		c-0.0986,3.5884,2.7305,6.5771,6.3184,6.6758c0.0615,0.0015,0.1211,0.0024,0.1816,0.0024c3.5078,0,6.3975-2.7939,6.4941-6.3218
		c0.7158-26.084,6.0781-47.0806,9.6133-58.2788c2.4697,7.2061,4.5557,15.2769,4.0293,20.9233
		c-0.9111,9.7773-4.0781,14.02-5.4902,22.6196c-0.2148,0.6611-0.3682,1.353-0.4434,2.0723l-10.5674,101.5
		c-0.5723,5.4932,3.418,10.4102,8.9111,10.9819c0.3516,0.0366,0.7012,0.0547,1.0469,0.0547c5.0576,0,9.3994-3.8242,9.9346-8.9653
		l8.2295-79.0483c3.4004-5.8447,6.5703-7.6797,8.4277-7.6797c1.8604,0,5.0352,1.8403,8.4404,7.7021l8.2266,79.0259
		c0.5352,5.1411,4.876,8.9653,9.9336,8.9653c0.3467,0,0.6963-0.0181,1.0479-0.0547c5.4932-0.5718,9.4834-5.4888,8.9111-10.9819
		l-10.5664-101.5c-0.0762-0.7363-0.2373-1.4429-0.4609-2.1182c-1.416-8.5693-4.5732-12.8135-5.4834-22.5737
		c-0.5264-5.646,1.5596-13.7153,4.0283-20.9204c1.8463,5.8491,4.1899,14.3745,6.1105,24.8967
		c1.5483,8.4822,2.8201,18.2629,3.3345,28.9945c0.0693,1.4454,0.1267,2.9056,0.1673,4.3846
		c0.0095,0.3446,0.053,0.6795,0.1137,1.0082c-0.6409,5.3729-1.4272,16.7125,2.5538,21.4018
		c1.2676,1.4937,2.9502,2.2827,4.8662,2.2827c1.9775,0,3.666-0.8105,4.8809-2.3438c0.5488-0.6929,0.9824-1.5254,1.3203-2.457
		c5.4541,23.1909,13.1719,44.9697,25.1904,44.9697c3.6924,0,6.9092-1.4307,9.5625-4.252
		c8.9897-9.5591,8.9146-33.0402,8.6855-39.9346c-0.0496,0.0007-0.0982,0.0098-0.1478,0.0098h-3.7646
		c-3.7651,0-7.356-2.0166-9.605-5.395c-0.563-0.8457-0.9814-1.8535-1.2231-2.938l-3.6296-7.1232
		c-1.9554,6.0242-5.3376,15.6409-7.9852,18.9503c2.312,0.7431,2.1468,1.4862,2.1468,1.4862s-1.1009,12.1377-0.1101,11.6423
		c0,0,0.3082,4.6104,0.47,9.8973l0.0258,0.0008l0.5066,11.4551c-0.8831-0.7714-1.7604-1.7476-2.6318-2.9251
		c-3.951-5.3391-7.7793-14.8458-11.4609-28.4689c-1.7765-6.5737-3.5193-14.0944-5.2247-22.5779
		c-0.3633-1.8081-0.6572-3.2656-0.8809-4.27c-0.168-0.7528-0.3491-1.5558-0.714-2.1563c-0.0359-1.0733-0.0762-2.1407-0.1261-3.1963
		c-0.584-12.3656-2.0956-23.5001-3.9128-32.9882c-3.9539-20.6442-9.3378-33.5024-9.6773-34.3007
		C78.899,56.6857,77.5797,55.4718,76.023,54.8551z M129.761,178.2553l-0.0455,3.8752c-0.7158,1.7973-1.5618,3.4272-2.557,4.8146
		l0.1031-8.7644L129.761,178.2553z M89.6573,150.437c-0.46,0.5801-0.9824,0.8276-1.7461,0.8276
		c-0.7451,0-1.3057-0.2686-1.8164-0.8706c-1.996-2.3502-2.3304-8.4919-2.0033-14.133c0.7534,0.3582,1.5839,0.5738,2.4597,0.6168
		c0.1069,0.0052,0.2124,0.0159,0.3205,0.0159c0.0596,0,0.1201-0.001,0.1816-0.0024c0.379-0.0104,0.7472-0.0598,1.1067-0.132
		c0.8697-0.1747,1.6742-0.52,2.3787-1.0023C91.36,141.3954,91.588,148.0016,89.6573,150.437z" id="id_110" style="fill: rgb(250, 196, 3);"></path>
</g>
</svg>