<svg version="1.1" id="Layer_1" xmlns="http://www.w3.org/2000/svg" xmlns:xlink="http://www.w3.org/1999/xlink" x="0px" y="0px" viewBox="0 0 145.6653 114.1453" enable-background="new 0 0 145.6653 114.1453" xml:space="preserve">
<g>
	<path d="M53.5813,43.2166c-8.3994-1.9297-17.8369-8.4463-25.7246-10.4346c7.8252,0.0127,12.9004-3.2509,8.0166-5.1347
		c-4.1094-1.5801-17.9453-2.7442-25.2266,13.9004c-1.3769,3.1504-11.0312,4.7812-10.6348,8.8759
		c0.4043,4.1397,0.9707,4.9522,2.9834,6.9571c2.8838,2.8701,9.1475-0.1533,13.6592,0.2431
		c1.1455,0.0997,6.8848,2.794,12.6455,5.7715c0.8389-0.3886,1.7813-0.872,2.834-1.4795
		C37.0207,59.1004,44.2121,53.6453,53.5813,43.2166z M19.9338,47.1883c-1.789,0.1318-3.3486-1.2148-3.4775-3.0059
		c-0.1289-1.7871,1.2178-3.3476,3.0068-3.4756c1.7891-0.1308,3.3467,1.2178,3.4756,3.0079
		C23.0696,45.5037,21.7229,47.0594,19.9338,47.1883z" id="id_101" style="fill: rgb(240, 239, 237);"></path>
	<path d="M107.9192,61.5955c-6.0176-7.2441-25.795-27.9131-49.0645-18.3154C47.6692,56.2186,39.1262,62.6443,33.3332,65.827
		c-0.3027,1.2715-0.1152,2.6562,0.6446,3.8447l26.916,42.166c0.9472,1.4854,2.5683,2.3076,4.2246,2.3076
		c0.8379,0,1.6846-0.2099,2.459-0.6504c2.3105-1.3134,3.1914-4.2197,2-6.5927L58.4992,84.8563
		c1.5381,0.0136,2.9229-0.2588,3.9502-0.9649c4.3809-3.0088,8.0694-5.0244,11.1885-6.3271
		c-4.1875,3.2451-7.2695,7.2695-6.4678,11.8633c2.1543,12.3701,21.6749,3.3925,24.4708,2.2753
		c1.791-0.7207-4.0782,9.3848-6.0518,15.7315c-1.1084,3.5537,0.5303,5.6221,1.9248,6.0771
		c7.1875,2.3496,22.249-27.7451,19.7432-33.5429c-2.0508-4.7442-5.8887-1.9063-9.3418-2.0586
		c2.6982-1.7403,5.5058-4.1709,7.7431-6.5332c2.9942,4.2109,6.6866,11.0498,6.6143,18.916
		c-0.0039,3.7578-0.7783,7.8037-2.8604,12.1748c-0.9502,1.9932-0.1064,4.3818,1.8887,5.334
		c0.5557,0.2646,1.1416,0.3896,1.7178,0.3896c1.4941,0,2.9277-0.8408,3.6142-2.2783c2.5928-5.4238,3.6436-10.7363,3.6416-15.6201
		c-0.0117-8.7236-3.2519-15.9727-6.4004-21.0244C111.3899,65.2918,108.9397,62.6326,107.9192,61.5955z" id="id_102" style="fill: rgb(240, 238, 232);"></path>
	<path d="M77.176,27.6942c-2.3887-8.962-17.7246,1.4375-17.7246,1.4375S78.8157,33.8406,77.176,27.6942z" id="id_103" style="fill: rgb(235, 234, 230);"></path>
	<path d="M33.508,16.7156c0,0,12.0743-15.6406,5.8477-16.6328C30.2737-1.3674,33.508,16.7156,33.508,16.7156z" id="id_104" style="fill: rgb(232, 230, 225);"></path>
	<path d="M67.0481,4.6746c-7.586-8.0674-17.8213,11.544-17.8213,11.544S72.2512,10.2108,67.0481,4.6746z" id="id_105" style="fill: rgb(232, 229, 223);"></path>
	<rect x="85.9729" y="31.5418" width="59.6924" height="2.6924" id="id_106" style="fill: rgb(240, 239, 235);"></rect>
	<rect x="110.5715" y="38.6121" width="27.8584" height="2.6934" id="id_107" style="fill: rgb(240, 239, 235);"></rect>
	<rect x="94.6555" y="24.4715" width="27.8574" height="2.6934" id="id_108" style="fill: rgb(237, 236, 232);"></rect>
</g>
</svg>