<?xml version="1.0" encoding="UTF-8" standalone="no"?> <svg id="Layer_x0020_1" xmlns="http://www.w3.org/2000/svg" width="900" height="900" viewBox="0 0 900 900">
  <circle id="Ellipse_16" data-name="Ellipse 16" cx="450" cy="450" r="450" fill="#b3eaa8"/>
  <path id="Path_75" data-name="Path 75" d="M194.637,374.106c0,19.335,5.687,35.456,14.928,48.061a77.583,77.583,0,0,0,40.616,28.178,6.97,6.97,0,0,0,2.572.489H511.335a6.953,6.953,0,0,0,3-.674,79.412,79.412,0,0,0,39.757-28.709,81.083,81.083,0,0,0-7.53-104.629A78.275,78.275,0,0,0,456.186,301.2a80.429,80.429,0,0,0-25.6-34.43,78.325,78.325,0,0,0-96.6.273A80.455,80.455,0,0,0,308.46,301.87a78.319,78.319,0,0,0-90.648,15.5,80.611,80.611,0,0,0-23.174,56.733Z" fill="#022a32" fill-rule="evenodd"/>
  <path id="Path_76" data-name="Path 76" d="M577.507,394.6h69.457a6.942,6.942,0,0,0,2.994-.673,79.4,79.4,0,0,0,39.761-28.709,81.083,81.083,0,0,0-7.531-104.63,78.254,78.254,0,0,0-90.371-15.62,80.425,80.425,0,0,0-25.6-34.433,78.329,78.329,0,0,0-96.6.273,80.424,80.424,0,0,0-25.526,34.831,78.161,78.161,0,0,0-55.023-5.363A88.386,88.386,0,0,1,436.855,258.7a90.546,90.546,0,0,1,24.517,29.28q2.181-.762,4.4-1.409a88.492,88.492,0,0,1,88.065,23.08,91.4,91.4,0,0,1,23.67,84.941Z" fill="#022a32"/>
  <path id="Path_77" data-name="Path 77" d="M329.277,470.654A6.962,6.962,0,1,0,321.2,459.31L274.892,492.15a6.963,6.963,0,1,0,8.073,11.347l46.312-32.843Z" fill="#022a32"/>
  <path id="Path_78" data-name="Path 78" d="M386.617,470.654a6.962,6.962,0,0,0-8.073-11.344L332.231,492.15A6.963,6.963,0,0,0,340.3,503.5l46.313-32.843Z" fill="#022a32"/>
  <path id="Path_79" data-name="Path 79" d="M443.956,470.654a6.962,6.962,0,1,0-8.073-11.344L389.571,492.15a6.963,6.963,0,1,0,8.073,11.347l46.312-32.843Z" fill="#022a32"/>
  <path id="Path_80" data-name="Path 80" d="M501.294,470.654a6.961,6.961,0,1,0-8.072-11.344L446.909,492.15a6.963,6.963,0,0,0,8.074,11.347l46.311-32.843Z" fill="#022a32"/>
  <path id="Path_81" data-name="Path 81" d="M274.143,470.654a6.962,6.962,0,0,0-8.073-11.344L219.758,492.15a6.963,6.963,0,0,0,8.073,11.347l46.312-32.843Z" fill="#022a32"/>
  <path id="Path_82" data-name="Path 82" d="M242.013,692.034a6.983,6.983,0,1,0,0,13.965H631.042a6.983,6.983,0,0,0,0-13.965H474.462c2.357-14.139,6.058-26.541,11.774-36.817a30.716,30.716,0,0,0,8.767,5.2c7.546,2.839,14.955,1.865,21.823-1.813,6.139-3.289,11.753-8.791,16.5-15.576a93.389,93.389,0,0,0,15.609-43.6l.011-.093a6.982,6.982,0,0,0-6.118-7.752l-.816,6.935.791-6.928c-11.262-1.325-29.778.037-44.816,5.16-7.859,2.676-14.946,6.431-19.95,11.447-5.707,5.72-8.711,12.833-7.382,21.523l.006.04,6.9-1.067-6.874,1.064a36.768,36.768,0,0,0,5.92,14.388q-1.221,1.915-2.35,3.92l-.6,1.083c-3.136-26.483-11.29-45.391-20.564-58.557q-.831-1.178-1.675-2.3a32.508,32.508,0,0,0,4.409-12.805c.859-8.024-1.938-14.953-7.221-20.679-4.713-5.107-11.45-9.158-19.222-12.054a93.3,93.3,0,0,0-46.189-4.167l-.027,0a6.986,6.986,0,0,0-5.972,7.867l.021,0c1.544,11.248,7.512,28.838,16.244,42.115,4.565,6.94,9.972,12.859,16.061,16.435,6.982,4.1,14.632,5.224,22.72,1.741a34.4,34.4,0,0,0,10.209-7.043c11.532,16.966,20.85,44.639,18.183,88.221q-.1,1.637-.291,4.108H294.953c2.357-14.139,6.056-26.539,11.774-36.817a30.7,30.7,0,0,0,8.766,5.2c7.548,2.839,14.955,1.866,21.824-1.813,6.141-3.289,11.752-8.791,16.5-15.576a93.4,93.4,0,0,0,15.608-43.6l.013-.093a6.985,6.985,0,0,0-6.118-7.752l-.817,6.935.79-6.928c-11.262-1.325-29.777.037-44.815,5.16-7.859,2.676-14.946,6.431-19.949,11.447-5.709,5.72-8.713,12.833-7.384,21.523l.007.04,6.9-1.067-6.873,1.064a36.739,36.739,0,0,0,5.92,14.387q-1.221,1.915-2.349,3.921l-.6,1.085c-3.136-26.483-11.289-45.393-20.563-58.559q-.831-1.178-1.676-2.3a32.527,32.527,0,0,0,4.409-12.805c.859-8.024-1.938-14.953-7.221-20.679-4.711-5.107-11.45-9.158-19.22-12.054a93.312,93.312,0,0,0-46.191-4.167l-.028,0a6.982,6.982,0,0,0-5.969,7.867l.019,0c1.546,11.248,7.513,28.838,16.244,42.115,4.565,6.94,9.972,12.859,16.062,16.435,6.983,4.1,14.633,5.224,22.72,1.741A34.4,34.4,0,0,0,262.94,599.7c11.531,16.966,20.851,44.639,18.183,88.221q-.1,1.637-.292,4.108H242.012Z" fill="#022a32"/>
  <path id="Path_83" data-name="Path 83" d="M658.706,419.987a6.962,6.962,0,1,0-8.074-11.344l-46.311,32.842a6.962,6.962,0,1,0,8.072,11.346l46.313-32.843Z" fill="#022a32"/>
  <path id="Path_84" data-name="Path 84" d="M607.521,419.987a6.962,6.962,0,1,0-8.073-11.344l-46.312,32.842a6.962,6.962,0,0,0,8.072,11.346l46.313-32.843Z" fill="#022a32"/>
  <path id="Path_85" data-name="Path 85" d="M514.332,450.159a79.412,79.412,0,0,0,39.757-28.709,81.083,81.083,0,0,0-7.53-104.629A78.275,78.275,0,0,0,456.186,301.2a80.429,80.429,0,0,0-25.6-34.43,78.325,78.325,0,0,0-96.6.273,80.455,80.455,0,0,0-25.526,34.828,78.319,78.319,0,0,0-90.648,15.5,80.611,80.611,0,0,0-23.174,56.733c0,19.335,5.687,35.456,14.928,48.061a77.583,77.583,0,0,0,40.616,28.178,6.97,6.97,0,0,0,2.572.489H511.335a6.953,6.953,0,0,0,3-.674Z" fill="#db5656"/>
  <path id="Path_86" data-name="Path 86" d="M490.525,283.03a88.631,88.631,0,0,1,63.312,26.624,91.4,91.4,0,0,1,23.67,84.941h69.457a6.942,6.942,0,0,0,2.994-.673,79.4,79.4,0,0,0,39.761-28.709,81.083,81.083,0,0,0-7.531-104.63,78.254,78.254,0,0,0-90.371-15.62,80.425,80.425,0,0,0-25.6-34.433,78.329,78.329,0,0,0-96.6.273,80.424,80.424,0,0,0-25.526,34.831,78.161,78.161,0,0,0-55.023-5.363A88.386,88.386,0,0,1,436.856,258.7a90.546,90.546,0,0,1,24.517,29.28q2.181-.762,4.4-1.409a88.494,88.494,0,0,1,24.754-3.544Z" fill="#022a32" fill-rule="evenodd"/>
  <path id="Path_87" data-name="Path 87" d="M266.07,459.309,219.758,492.15a6.963,6.963,0,0,0,8.073,11.347l46.312-32.843a6.962,6.962,0,1,0-8.073-11.344Z" fill="#db5656" fill-rule="evenodd"/>
  <path id="Path_88" data-name="Path 88" d="M321.2,459.309,274.892,492.15a6.963,6.963,0,0,0,8.073,11.347l46.312-32.843a6.962,6.962,0,1,0-8.073-11.344Z" fill="#db5656" fill-rule="evenodd"/>
  <path id="Path_89" data-name="Path 89" d="M378.544,459.309,332.231,492.15A6.963,6.963,0,0,0,340.3,503.5l46.313-32.843a6.962,6.962,0,1,0-8.073-11.344Z" fill="#db5656" fill-rule="evenodd"/>
  <path id="Path_90" data-name="Path 90" d="M435.883,459.309,389.571,492.15a6.963,6.963,0,1,0,8.073,11.347l46.312-32.843a6.962,6.962,0,1,0-8.073-11.344Z" fill="#db5656" fill-rule="evenodd"/>
  <path id="Path_91" data-name="Path 91" d="M493.222,459.309,446.909,492.15a6.963,6.963,0,0,0,8.074,11.347l46.311-32.843a6.961,6.961,0,1,0-8.072-11.344Z" fill="#db5656" fill-rule="evenodd"/>
</svg>
